<?xml version="1.0" standalone="no"?>
<!DOCTYPE svg PUBLIC "-//W3C//DTD SVG 20010904//EN"
 "http://www.w3.org/TR/2001/REC-SVG-20010904/DTD/svg10.dtd">
<svg version="1.0" xmlns="http://www.w3.org/2000/svg"
 width="512.000000pt" height="512.000000pt" viewBox="0 0 512.000000 512.000000"
 preserveAspectRatio="xMidYMid meet">
<metadata>
Created by potrace 1.14, written by Peter Selinger 2001-2017
</metadata>
<g transform="translate(0.000000,512.000000) scale(0.100000,-0.100000)"
fill="#000000" stroke="none">
<path d="M2825 4763 c-91 -49 -99 -172 -16 -234 l30 -22 -84 -161 c-47 -92
-94 -169 -109 -180 -17 -13 -42 -20 -73 -20 -52 0 -82 17 -191 111 -123 106
-132 115 -123 127 17 21 23 84 11 121 -24 74 -100 110 -177 84 -130 -42 -117
-241 18 -264 38 -7 38 -7 68 -98 16 -51 34 -108 40 -127 5 -19 28 -93 51 -165
23 -71 43 -134 44 -140 1 -5 10 -34 20 -62 9 -29 14 -58 10 -64 -4 -7 -3 -9 3
-6 6 4 15 -11 21 -31 14 -46 47 -79 99 -97 47 -17 702 -21 762 -5 66 18 105
64 134 160 14 47 46 150 72 230 25 80 48 152 50 160 2 8 19 66 40 128 29 90
40 112 56 113 29 2 32 3 66 23 60 36 79 120 42 185 -36 65 -97 80 -141 34 -48
-50 -60 -114 -33 -166 l14 -27 -102 -88 c-147 -126 -162 -135 -218 -136 -33
-1 -56 5 -74 19 -16 12 -61 85 -111 183 l-84 162 24 11 c27 13 66 76 66 109 0
54 -22 97 -63 124 -47 30 -97 33 -142 9z"/>
<path d="M2616 3259 c-44 -5 -91 -10 -105 -13 -14 -2 -57 -9 -96 -16 -479 -79
-882 -362 -1081 -760 -20 -41 -41 -77 -46 -78 -4 -2 -6 -7 -3 -12 3 -4 -2 -23
-9 -42 -22 -53 -65 -226 -72 -293 -3 -33 -8 -73 -10 -90 -5 -39 -5 -199 1
-245 2 -19 6 -62 10 -95 23 -217 111 -455 241 -653 72 -110 232 -270 345 -345
91 -60 276 -152 374 -185 78 -27 217 -62 245 -62 12 0 19 -4 16 -9 -4 -5 2 -7
11 -5 10 2 68 -2 128 -10 127 -15 409 -18 540 -4 104 10 288 42 325 56 14 5
33 8 43 7 9 -2 17 1 17 6 0 5 6 9 14 9 16 0 147 51 234 91 35 16 67 29 72 29
6 0 10 5 10 10 0 6 9 29 19 53 10 23 30 68 44 99 l26 58 -27 29 -27 29 -55
-27 c-129 -62 -281 -114 -410 -141 -150 -31 -490 -34 -638 -6 -242 45 -436
142 -587 291 -163 161 -293 410 -336 645 -25 137 -33 383 -16 519 51 416 269
717 618 855 173 68 418 92 624 62 61 -8 119 -17 130 -20 96 -20 252 -81 310
-121 42 -29 115 -97 126 -117 5 -10 12 -64 15 -120 4 -57 8 -121 9 -143 2 -22
4 -52 4 -67 l1 -28 90 0 90 0 1 28 c1 15 2 38 4 52 1 14 5 70 9 124 8 128 30
270 56 369 22 85 18 111 -22 120 -13 3 -68 20 -123 37 -85 27 -205 59 -280 76
-21 4 -173 29 -235 39 -19 2 -53 7 -75 11 -66 10 -464 12 -549 3z"/>
</g>
</svg>
